<?xml version="1.0" encoding="UTF-8" standalone="no"?>
<svg
   xmlns:dc="http://purl.org/dc/elements/1.1/"
   xmlns:cc="http://creativecommons.org/ns#"
   xmlns:rdf="http://www.w3.org/1999/02/22-rdf-syntax-ns#"
   xmlns:svg="http://www.w3.org/2000/svg"
   xmlns="http://www.w3.org/2000/svg"
   id="svg5042"
   version="1.1"
   viewBox="0 0 128 128"
   height="128"
   width="128">
  <defs
     id="defs5036" />
  <metadata
     id="metadata5039">
    <rdf:RDF>
      <cc:Work
         rdf:about="">
        <dc:format>image/svg+xml</dc:format>
        <dc:type
           rdf:resource="http://purl.org/dc/dcmitype/StillImage" />
        <dc:title></dc:title>
      </cc:Work>
    </rdf:RDF>
  </metadata>
  <g
     transform="translate(0,-263.13332)"
     id="layer1">
    <rect
       y="263.13333"
       x="0"
       height="128"
       width="128"
       id="rect9527"
       style="opacity:1;fill:#afc6e9;fill-opacity:1;fill-rule:nonzero;stroke:#ffffff;stroke-width:0.90330708;stroke-linecap:round;stroke-linejoin:round;stroke-miterlimit:4;stroke-dasharray:none;stroke-dashoffset:0;stroke-opacity:1;paint-order:fill markers stroke" />
    <rect
       y="206.78049"
       x="-94.449265"
       height="1.0101526"
       width="4.0406103"
       id="rect9529"
       style="opacity:1;fill:#afc6e9;fill-opacity:1;fill-rule:nonzero;stroke:#ffffff;stroke-width:0.90330708;stroke-linecap:round;stroke-linejoin:round;stroke-miterlimit:4;stroke-dasharray:none;stroke-dashoffset:0;stroke-opacity:1;paint-order:fill markers stroke" />
    <g
       id="text9533"
       style="font-style:normal;font-variant:normal;font-weight:bold;font-stretch:normal;font-size:53.33333206px;line-height:1.25;font-family:Pacifico;-inkscape-font-specification:'Pacifico Bold';letter-spacing:0px;word-spacing:0px;fill:#000000;fill-opacity:1;stroke:none"
       transform="rotate(-25.905945)"
       aria-label="Album">
      <path
         id="path9535"
         style="font-style:normal;font-variant:normal;font-weight:bold;font-stretch:normal;font-size:42.66666794px;font-family:Cambria;-inkscape-font-specification:'Cambria Bold';fill:#ffffff"
         d="m -137.06715,326.38327 h -8.89584 l -0.6875,1.97917 q -0.29166,0.83333 -0.47916,1.625 -0.1875,0.77083 -0.1875,1.64583 0,2.04167 2.16666,2.1875 v 1.375 h -8.89583 v -1.375 q 0.77083,-0.0833 1.35417,-0.54167 0.58333,-0.45833 1.0625,-1.25 0.47916,-0.79166 1.02083,-2.27083 l 8.6875,-23.14583 h 5.5625 l 6.875,23.33333 q 0.45833,1.5625 0.77083,2.22917 0.3125,0.64583 0.8125,1.0625 0.5,0.39583 1.39584,0.58333 v 1.375 h -11.5 v -1.375 q 1.08333,-0.125 1.60416,-0.60417 0.52084,-0.47916 0.52084,-1.35416 0,-0.64584 -0.14584,-1.4375 -0.14583,-0.79167 -0.47916,-2 z m -8.10417,-2.4375 h 7.5 l -3.33333,-11.72917 z" />
      <path
         id="path9537"
         style="font-style:normal;font-variant:normal;font-weight:bold;font-stretch:normal;font-size:42.66666794px;font-family:Cambria;-inkscape-font-specification:'Cambria Bold';fill:#ffffff"
         d="m -116.46299,329.17494 q 0,1.97916 0.125,2.72916 0.125,0.75 0.5,1.20834 0.39584,0.4375 1.45834,0.70833 v 1.375 h -10.20834 v -1.375 q 0.625,-0.14583 0.97917,-0.33333 0.35417,-0.20834 0.54167,-0.45834 0.20833,-0.27083 0.35416,-0.66666 0.14584,-0.41667 0.1875,-1.125 0.0417,-0.72917 0.0417,-2.0625 v -16.25 q 0,-1.79167 -0.0417,-2.625 -0.0208,-0.85417 -0.125,-1.41667 -0.0833,-0.58333 -0.3125,-0.91667 -0.20833,-0.35416 -0.60416,-0.5625 -0.39584,-0.20833 -1.27084,-0.375 v -1.375 l 5.77084,-0.29166 h 2.60416 z" />
      <path
         id="path9539"
         style="font-style:normal;font-variant:normal;font-weight:bold;font-stretch:normal;font-size:42.66666794px;font-family:Cambria;-inkscape-font-specification:'Cambria Bold';fill:#ffffff"
         d="m -109.56715,312.54994 q 0,-1.5 -0.0208,-2.29167 -0.0208,-0.79167 -0.125,-1.375 -0.10416,-0.58333 -0.33333,-0.91667 -0.22917,-0.33333 -0.625,-0.54166 -0.375,-0.20834 -1.25,-0.39584 v -1.375 l 5.8125,-0.29166 h 2.5625 v 11.9375 l 0.0208,0.0208 q 1.25,-1.14583 2.1875,-1.77083 0.9375,-0.625 2.000003,-0.97917 1.0625,-0.375 2.270834,-0.375 3.708333,0 5.5625,2.625 1.854166,2.60417 1.854166,7.8125 0,3.60417 -1.104166,6.04167 -1.083334,2.41666 -3.25,3.64583 -2.166667,1.20833 -5.333334,1.20833 -3.291663,0 -6.020833,-1.1875 l -1.54167,1.1875 -2.66666,-0.375 z m 6.02083,15.8125 q 0,2.5625 0.875,3.79166 0.89583,1.20834 2.75,1.20834 1.916667,0 2.916667,-2 1.020833,-2.02084 1.020833,-5.75 0,-4.10417 -0.895833,-6.125 -0.895834,-2.02084 -2.791667,-2.02084 -0.91667,0 -1.8125,0.47917 -0.89583,0.47917 -1.47917,1.375 -0.58333,0.875 -0.58333,1.9375 z" />
      <path
         id="path9541"
         style="font-style:normal;font-variant:normal;font-weight:bold;font-stretch:normal;font-size:42.66666794px;font-family:Cambria;-inkscape-font-specification:'Cambria Bold';fill:#ffffff"
         d="m -86.296321,314.5291 h 8.104167 v 11.5625 q 0,2 0.125,3.125 0.125,1.125 0.479167,1.79167 0.354167,0.64583 0.854167,0.95833 0.520833,0.29167 1.3125,0.29167 0.770833,0 1.625,-0.47917 0.854167,-0.47916 1.4375,-1.33333 0.604167,-0.875 0.604167,-1.85417 v -8.04166 q 0,-1.52084 -0.0625,-2.25 -0.0625,-0.75 -0.25,-1.16667 -0.166667,-0.41667 -0.541667,-0.6875 -0.375,-0.29167 -1.229167,-0.54167 v -1.375 h 8.125 v 14.58334 q 0,1.58333 0.04167,2.3125 0.0625,0.72916 0.25,1.16666 0.1875,0.4375 0.604167,0.72917 0.416666,0.27083 1.395833,0.47917 v 1.39583 l -5.666667,0.1875 h -2.520833 l 0.1875,-3 -0.25,-0.0625 q -1.9375,1.79167 -3.458334,2.5 -1.520833,0.70833 -3.0625,0.70833 -2.208333,0 -3.541666,-0.8125 -1.3125,-0.83333 -1.895834,-2.41666 -0.583333,-1.60417 -0.583333,-4.125 v -7.625 q 0,-1.16667 -0.04167,-1.79167 -0.02083,-0.625 -0.08333,-0.95833 -0.0625,-0.35417 -0.1875,-0.625 -0.104167,-0.29167 -0.3125,-0.52084 -0.1875,-0.22916 -0.541667,-0.41666 -0.333333,-0.1875 -0.916667,-0.33334 z" />
      <path
         id="path9543"
         style="font-style:normal;font-variant:normal;font-weight:bold;font-stretch:normal;font-size:42.66666794px;font-family:Cambria;-inkscape-font-specification:'Cambria Bold';fill:#ffffff"
         d="m -52.587987,317.36244 0.25,0.0625 q 1.895833,-1.77084 3.416667,-2.5 1.520833,-0.72917 3.104167,-0.72917 1.541666,0 2.5625,0.39583 1.020833,0.39584 1.729166,1.16667 0.708334,0.75 1.145834,1.97917 2.104166,-1.95834 3.645833,-2.75 1.5625,-0.79167 3.25,-0.79167 1.666667,0 2.75,0.4375 1.104167,0.4375 1.8125,1.35417 0.708334,0.91666 1.020834,2.29166 0.333333,1.375 0.333333,3.29167 v 7.60417 q 0,0.91666 0.02083,1.72916 0.04167,0.79167 0.166667,1.27084 0.125,0.47916 0.333333,0.79166 0.229167,0.29167 0.625,0.5 0.395834,0.20834 0.958334,0.35417 v 1.375 h -10.041667 v -1.375 q 0.9375,-0.22917 1.291667,-0.66667 0.354166,-0.4375 0.479166,-1.20833 0.145834,-0.77083 0.145834,-2.75 v -5.58333 q 0,-1.875 -0.125,-3.04167 -0.125,-1.1875 -0.479167,-1.85417 -0.354167,-0.66666 -0.854167,-0.95833 -0.479166,-0.29167 -1.270833,-0.29167 -0.541667,0 -1,0.16667 -0.458334,0.16667 -0.9375,0.52083 -0.458334,0.33334 -0.791667,0.6875 -0.333333,0.35417 -0.541667,0.79167 -0.1875,0.4375 -0.270833,0.97917 -0.0625,0.54166 -0.0625,1.77083 v 6.79167 q 0,1.41666 0.04167,2.16666 0.0625,0.75 0.229166,1.20834 0.166667,0.45833 0.520834,0.77083 0.375,0.29167 1.145833,0.5 v 1.375 h -9.916667 v -1.375 q 0.958334,-0.22917 1.3125,-0.66667 0.375,-0.4375 0.5,-1.1875 0.125,-0.77083 0.125,-2.77083 v -5.58333 q 0,-1.375 -0.0625,-2.3125 -0.04167,-0.95834 -0.166666,-1.54167 -0.125,-0.58333 -0.354167,-1.02083 -0.208333,-0.4375 -0.5,-0.70834 -0.270833,-0.27083 -0.666667,-0.41666 -0.375,-0.14584 -0.958333,-0.14584 -0.770834,0 -1.625,0.47917 -0.833334,0.47917 -1.416667,1.33333 -0.5625,0.85417 -0.5625,1.83334 v 8.0625 q 0,1.95833 0.104167,2.75 0.125,0.77083 0.5,1.22916 0.375,0.4375 1.3125,0.66667 v 1.375 h -9.979167 v -1.375 q 1,-0.27083 1.375,-0.70833 0.395833,-0.4375 0.520833,-1.1875 0.145834,-0.75 0.145834,-2.72917 v -8.5625 q 0,-1.54167 -0.0625,-2.27083 -0.04167,-0.75 -0.25,-1.1875 -0.1875,-0.45834 -0.604167,-0.72917 -0.395834,-0.29167 -1.395834,-0.5 v -1.41667 l 5.708334,-0.16666 h 2.625 z" />
    </g>
  </g>
</svg>
