<?xml version="1.0" encoding="UTF-8" standalone="no"?>
<svg
   xmlns:dc="http://purl.org/dc/elements/1.1/"
   xmlns:cc="http://creativecommons.org/ns#"
   xmlns:rdf="http://www.w3.org/1999/02/22-rdf-syntax-ns#"
   xmlns:svg="http://www.w3.org/2000/svg"
   xmlns="http://www.w3.org/2000/svg"
   xmlns:xlink="http://www.w3.org/1999/xlink"
   id="svg8"
   version="1.1"
   viewBox="0 0 128 128"
   height="128"
   width="128">
  <defs
     id="defs2">
    <linearGradient
       id="linearGradient4877">
      <stop
         id="stop4873"
         offset="0"
         style="stop-color:#9955ff;stop-opacity:1" />
      <stop
         id="stop4875"
         offset="1"
         style="stop-color:#2a2aff;stop-opacity:1" />
    </linearGradient>
    <linearGradient
       gradientTransform="matrix(0.92829925,0,0,0.92829925,4.5888123,267.72228)"
       gradientUnits="userSpaceOnUse"
       y2="9.8121519"
       x2="119.70308"
       y1="116.38325"
       x1="24.243662"
       id="linearGradient4879">
      <stop
         id="stop4873"
         offset="0"
         style="stop-color:#9955ff;stop-opacity:1" />
      <stop
         id="stop4875"
         offset="1"
         style="stop-color:#2a2aff;stop-opacity:1" />
    </linearGradient>
  </defs>
  <metadata
     id="metadata5">
    <rdf:RDF>
      <cc:Work
         rdf:about="">
        <dc:format>image/svg+xml</dc:format>
        <dc:type
           rdf:resource="http://purl.org/dc/dcmitype/StillImage" />
        <dc:title></dc:title>
      </cc:Work>
    </rdf:RDF>
  </metadata>
  <g
     transform="translate(0,-263.13332)"
     id="layer1">
    <path
       id="path4757"
       d="m 56.597141,274.01368 a 4.0771431,4.0771431 0 0 0 -4.083067,3.50469 l -4.750281,33.67079 -32.989072,8.2441 a 4.0771431,4.0771431 0 0 0 -0.801383,7.61858 l 30.5541,14.92168 -2.353385,33.92282 a 4.0771431,4.0771431 0 0 0 6.998507,3.11669 L 72.806116,354.56358 104.34109,367.286 a 4.0771431,4.0771431 0 0 0 5.1256,-5.69309 L 93.518793,331.56098 115.36102,305.50152 a 4.0771431,4.0771431 0 0 0 -3.82924,-6.63408 l -19.251323,3.38322 v 23.4468 c 0,4.27176 -3.473746,7.7455 -7.745497,7.7455 -4.271752,0 -7.745497,-3.47374 -7.745497,-7.7455 0,-4.27175 3.473745,-7.74549 7.745497,-7.74549 1.417032,0 2.729001,0.40996 3.872748,1.07697 v -15.9352 l -23.493949,6.6377 v 23.71152 c 0,4.27175 -3.473745,7.7455 -7.745497,7.7455 -4.271752,0 -7.745497,-3.47375 -7.745497,-7.7455 0,-4.27175 3.473745,-7.7455 7.745497,-7.7455 1.417032,0 2.729002,0.40996 3.872749,1.07698 V 300.5246 c 0,-0.86427 0.573148,-1.62374 1.40514,-1.86204 l 10.01004,-2.83385 -12.450451,-19.90223 a 4.0771431,4.0771431 0 0 0 -3.408599,-1.9128 z"
       clip-path="none"
       style="color:#000000;font-style:normal;font-variant:normal;font-weight:normal;font-stretch:normal;font-size:medium;line-height:normal;font-family:sans-serif;font-variant-ligatures:normal;font-variant-position:normal;font-variant-caps:normal;font-variant-numeric:normal;font-variant-alternates:normal;font-feature-settings:normal;text-indent:0;text-align:start;text-decoration:none;text-decoration-line:none;text-decoration-style:solid;text-decoration-color:#000000;letter-spacing:normal;word-spacing:normal;text-transform:none;writing-mode:lr-tb;direction:ltr;text-orientation:mixed;dominant-baseline:auto;baseline-shift:baseline;text-anchor:start;white-space:normal;shape-padding:0;clip-rule:nonzero;display:inline;overflow:visible;visibility:visible;opacity:1;isolation:auto;mix-blend-mode:normal;color-interpolation:sRGB;color-interpolation-filters:linearRGB;solid-color:#000000;solid-opacity:1;vector-effect:none;fill:url(#linearGradient4879);fill-opacity:1;fill-rule:nonzero;stroke:none;stroke-width:8.15347099;stroke-linecap:round;stroke-linejoin:round;stroke-miterlimit:4;stroke-dasharray:none;stroke-dashoffset:0;stroke-opacity:1;paint-order:fill markers stroke;color-rendering:auto;image-rendering:auto;shape-rendering:auto;text-rendering:auto;enable-background:accumulate" />
    <g
       clip-path="none"
       transform="matrix(0.13906188,0,0,0.13906188,23.265749,271.0752)"
       id="g4789"
       style="fill:#ffffff">
	<g
   id="g4787"
   style="fill:#ffffff">
		
	</g>

</g>
    <g
       transform="matrix(0.26338626,0,0,0.26338626,-1.7125948,242.99207)"
       id="g4791"
       style="fill:#800000">
</g>
    <g
       transform="matrix(0.26338626,0,0,0.26338626,-1.7125948,242.99207)"
       id="g4793"
       style="fill:#800000">
</g>
    <g
       transform="matrix(0.26338626,0,0,0.26338626,-1.7125948,242.99207)"
       id="g4795"
       style="fill:#800000">
</g>
    <g
       transform="matrix(0.26338626,0,0,0.26338626,-1.7125948,242.99207)"
       id="g4797"
       style="fill:#800000">
</g>
    <g
       transform="matrix(0.26338626,0,0,0.26338626,-1.7125948,242.99207)"
       id="g4799"
       style="fill:#800000">
</g>
    <g
       transform="matrix(0.26338626,0,0,0.26338626,-1.7125948,242.99207)"
       id="g4801"
       style="fill:#800000">
</g>
    <g
       transform="matrix(0.26338626,0,0,0.26338626,-1.7125948,242.99207)"
       id="g4803"
       style="fill:#800000">
</g>
    <g
       transform="matrix(0.26338626,0,0,0.26338626,-1.7125948,242.99207)"
       id="g4805"
       style="fill:#800000">
</g>
    <g
       transform="matrix(0.26338626,0,0,0.26338626,-1.7125948,242.99207)"
       id="g4807"
       style="fill:#800000">
</g>
    <g
       transform="matrix(0.26338626,0,0,0.26338626,-1.7125948,242.99207)"
       id="g4809"
       style="fill:#800000">
</g>
    <g
       transform="matrix(0.26338626,0,0,0.26338626,-1.7125948,242.99207)"
       id="g4811"
       style="fill:#800000">
</g>
    <g
       transform="matrix(0.26338626,0,0,0.26338626,-1.7125948,242.99207)"
       id="g4813"
       style="fill:#800000">
</g>
    <g
       transform="matrix(0.26338626,0,0,0.26338626,-1.7125948,242.99207)"
       id="g4815"
       style="fill:#800000">
</g>
    <g
       transform="matrix(0.26338626,0,0,0.26338626,-1.7125948,242.99207)"
       id="g4817"
       style="fill:#800000">
</g>
    <g
       transform="matrix(0.26338626,0,0,0.26338626,-1.7125948,242.99207)"
       id="g4819"
       style="fill:#800000">
</g>
  </g>
</svg>
