<?xml version="1.0" encoding="UTF-8" standalone="no"?>
<svg
   xmlns:dc="http://purl.org/dc/elements/1.1/"
   xmlns:cc="http://creativecommons.org/ns#"
   xmlns:rdf="http://www.w3.org/1999/02/22-rdf-syntax-ns#"
   xmlns:svg="http://www.w3.org/2000/svg"
   xmlns="http://www.w3.org/2000/svg"
   id="svg5042"
   version="1.1"
   viewBox="0 0 128 128"
   height="128"
   width="128">
  <defs
     id="defs5036" />
  <metadata
     id="metadata5039">
    <rdf:RDF>
      <cc:Work
         rdf:about="">
        <dc:format>image/svg+xml</dc:format>
        <dc:type
           rdf:resource="http://purl.org/dc/dcmitype/StillImage" />
        <dc:title></dc:title>
      </cc:Work>
    </rdf:RDF>
  </metadata>
  <g
     transform="translate(0,-263.13332)"
     id="layer1">
    <rect
       y="263.13333"
       x="0"
       height="128"
       width="128"
       id="rect9527"
       style="opacity:1;fill:#aaaaff;fill-opacity:1;fill-rule:nonzero;stroke:#ffffff;stroke-width:0.90330708;stroke-linecap:round;stroke-linejoin:round;stroke-miterlimit:4;stroke-dasharray:none;stroke-dashoffset:0;stroke-opacity:1;paint-order:fill markers stroke" />
    <g
       id="text9533"
       style="font-style:normal;font-variant:normal;font-weight:bold;font-stretch:normal;font-size:53.33333206px;line-height:1.25;font-family:Pacifico;-inkscape-font-specification:'Pacifico Bold';letter-spacing:0px;word-spacing:0px;fill:#000000;fill-opacity:1;stroke:none"
       transform="rotate(-21.044013)"
       aria-label="Artist">
      <path
         id="path9546"
         style="font-style:normal;font-variant:normal;font-weight:bold;font-stretch:normal;font-size:45.33333206px;font-family:Cambria;-inkscape-font-specification:'Cambria Bold';fill:#ffffff"
         d="m -100.76151,332.15701 h -9.45182 l -0.73047,2.10287 q -0.30989,0.88541 -0.50911,1.72656 -0.19922,0.81901 -0.19922,1.7487 0,2.16927 2.30208,2.32422 v 1.46093 h -9.45182 v -1.46093 q 0.81901,-0.0885 1.4388,-0.57552 0.61979,-0.48698 1.12891,-1.32813 0.50911,-0.84114 1.08463,-2.41276 l 9.23047,-24.59245 h 5.91016 l 7.304686,24.79167 q 0.486979,1.66016 0.81901,2.36849 0.332031,0.6862 0.863281,1.12891 0.53125,0.42057 1.483073,0.61979 v 1.46093 h -12.21875 v -1.46093 q 1.15104,-0.13282 1.70443,-0.64193 0.553383,-0.50911 0.553383,-1.4388 0,-0.6862 -0.154948,-1.52735 -0.154948,-0.84114 -0.509115,-2.125 z m -8.61067,-2.58984 h 7.96875 l -3.54167,-12.46224 z" />
      <path
         id="path9548"
         style="font-style:normal;font-variant:normal;font-weight:bold;font-stretch:normal;font-size:45.33333206px;font-family:Cambria;-inkscape-font-specification:'Cambria Bold';fill:#ffffff"
         d="m -78.891714,322.72733 0.28776,0.0664 q 1.615885,-1.90364 3.320312,-2.74479 1.704427,-0.84115 3.696615,-0.84115 1.35026,0 2.833333,0.28777 v 6.10937 h -4.00651 q -0.376302,-1.28385 -0.996094,-1.97005 -0.597656,-0.6862 -1.615885,-0.6862 -0.486979,0 -1.084636,0.3099 -0.57552,0.28776 -1.084635,0.84114 -0.486979,0.53125 -0.708333,1.10677 -0.199219,0.55339 -0.265625,1.12891 -0.06641,0.57552 -0.06641,1.72656 v 7.0612 q 0,2.10286 0.154948,2.94401 0.154948,0.84115 0.619792,1.32812 0.464844,0.46485 1.571615,0.66407 v 1.46093 h -10.912761 v -1.46093 q 1.0625,-0.28776 1.460938,-0.75261 0.420573,-0.46484 0.553385,-1.26172 0.154948,-0.79687 0.154948,-2.89974 v -9.09765 q 0,-1.63802 -0.06641,-2.41276 -0.04427,-0.79688 -0.265625,-1.26172 -0.199219,-0.48698 -0.641927,-0.77474 -0.420573,-0.3099 -1.483073,-0.53125 v -1.50521 l 6.065104,-0.17708 h 2.789062 z" />
      <path
         id="path9550"
         style="font-style:normal;font-variant:normal;font-weight:bold;font-stretch:normal;font-size:45.33333206px;font-family:Cambria;-inkscape-font-specification:'Cambria Bold';fill:#ffffff"
         d="m -51.111766,338.86404 q -1.947917,1.66016 -3.541667,2.34636 -1.59375,0.66406 -3.364583,0.66406 -3.298177,0 -4.936198,-1.77083 -1.615885,-1.79297 -1.615885,-5.40104 v -12.3737 h -2.766927 v -1.52735 q 1.35026,-0.22135 1.992187,-0.66406 0.641928,-0.44271 0.996094,-1.17317 0.354167,-0.75261 0.553386,-1.94792 0.221354,-1.19531 0.332031,-2.98828 h 5.290364 v 5.53385 h 6.308594 v 2.76693 h -6.308594 v 9.98307 q 0,2.5013 0.221354,3.69662 0.24349,1.19531 0.796875,1.77083 0.553386,0.55338 1.372396,0.55338 0.619792,0 1.106771,-0.11067 0.486979,-0.11068 1.018229,-0.39844 0.553386,-0.28776 1.151042,-0.81901 z" />
      <path
         id="path9552"
         style="font-style:normal;font-variant:normal;font-weight:bold;font-stretch:normal;font-size:45.33333206px;font-family:Cambria;-inkscape-font-specification:'Cambria Bold';fill:#ffffff"
         d="m -41.305779,310.72993 v 5.42318 h -6.065104 v -5.42318 z m -8.411458,29.32943 q 1.084635,-0.28776 1.483073,-0.75261 0.420573,-0.46484 0.553385,-1.26172 0.154948,-0.79687 0.154948,-2.89974 v -10.29296 q 0,-1.08464 -0.110677,-1.7487 -0.08854,-0.66406 -0.376302,-1.0625 -0.265625,-0.39844 -0.752604,-0.59766 -0.464844,-0.22135 -1.217448,-0.3763 v -1.50521 l 6.08724,-0.17708 h 2.766927 v 15.73828 q 0,1.23958 0.02213,1.92578 0.04427,0.66406 0.110677,1.04036 0.06641,0.35417 0.177083,0.64193 0.132813,0.28776 0.332032,0.53125 0.199218,0.24349 0.57552,0.44271 0.376302,0.19922 0.996094,0.35417 v 1.46093 h -10.802083 z" />
      <path
         id="path9554"
         style="font-style:normal;font-variant:normal;font-weight:bold;font-stretch:normal;font-size:45.33333206px;font-family:Cambria;-inkscape-font-specification:'Cambria Bold';fill:#ffffff"
         d="m -32.584422,335.54373 q 0.53125,2.01432 1.682292,3.03255 1.151041,0.9961 3.076823,0.9961 1.660156,0 2.501302,-0.75261 0.863281,-0.7526 0.863281,-2.1914 0,-0.90755 -0.398438,-1.54948 -0.376302,-0.64193 -1.283854,-1.21745 -0.885416,-0.59766 -3.054687,-1.54948 -1.217448,-0.53125 -2.302084,-1.17318 -1.0625,-0.64192 -1.859374,-1.4388 -0.796875,-0.81901 -1.261719,-1.8151 -0.464844,-0.9961 -0.464844,-2.21354 0,-1.99219 1.151042,-3.45313 1.151041,-1.46094 3.276041,-2.23568 2.147136,-0.77474 4.891927,-0.77474 1.615886,0 3.165365,0.13282 1.549479,0.13281 4.00651,0.57552 v 5.15755 h -2.921875 q -0.509114,-1.41667 -1.128906,-2.19141 -0.597656,-0.77474 -1.328125,-1.0625 -0.730469,-0.30989 -1.748698,-0.30989 -1.460937,0 -2.324219,0.66406 -0.863281,0.66406 -0.863281,1.85938 0,0.84114 0.309896,1.4388 0.309896,0.59765 1.106771,1.17317 0.796875,0.55339 3.076823,1.50521 2.080729,0.86328 3.386718,1.81511 1.30599,0.92968 1.992188,2.16927 0.686198,1.21745 0.686198,2.85547 0,1.79297 -0.664063,3.09895 -0.664062,1.28386 -1.859375,2.125 -1.195312,0.84115 -2.877604,1.26172 -1.660156,0.39844 -3.674479,0.39844 -3.652344,0 -8.123698,-1.04036 v -5.29037 z" />
      <path
         id="path9556"
         style="font-style:normal;font-variant:normal;font-weight:bold;font-stretch:normal;font-size:45.33333206px;font-family:Cambria;-inkscape-font-specification:'Cambria Bold';fill:#ffffff"
         d="m 0.5080231,338.86404 q -1.9479166,1.66016 -3.5416666,2.34636 -1.5937499,0.66406 -3.3645832,0.66406 -3.298177,0 -4.9361973,-1.77083 -1.615886,-1.79297 -1.615886,-5.40104 v -12.3737 h -2.766927 v -1.52735 q 1.350261,-0.22135 1.992188,-0.66406 0.641927,-0.44271 0.996093,-1.17317 0.354167,-0.75261 0.553386,-1.94792 0.221354,-1.19531 0.332031,-2.98828 h 5.2903644 v 5.53385 h 6.30859356 v 2.76693 H -6.5531746 v 9.98307 q 0,2.5013 0.2213541,3.69662 0.2434896,1.19531 0.796875,1.77083 0.5533854,0.55338 1.3723958,0.55338 0.6197917,0 1.1067708,-0.11067 0.4869792,-0.11068 1.0182292,-0.39844 0.5533854,-0.28776 1.15104159,-0.81901 z" />
    </g>
  </g>
</svg>
